# xmcd
#
# Track frame offsets:
# 150
# 22776
# 37842
# 47475
# 61317
# 73008
# 88602
# 100674
# 120741
# 131526
# 140421
# 162255
#
# Disc length: 2495 seconds
#
#
# Revision: 0
# Processed by: cddbd v1.5.2PL0 Copyright (c) Steve Scherf et al.
# Submitted via: FreeRIP 2.53 
#
DISCID=9309bd0c
DTITLE=Fabrice Eulry - Eulry Christmas
DYEAR=2005
DGENRE=Boogie Woogie
TTITLE0=Silent Night
TTITLE1=Ave Maria (Gounod)
TTITLE2=Away In The Manger
TTITLE3=Boogie Woogie Du Père Fouettard
TTITLE4=White Christmas
TTITLE5=We Wish You A Merry Christmas
TTITLE6=Ave Maria (Schubert)
TTITLE7=Il Est Né Le Divin Enfant
TTITLE8=Ave Maria (Eulry)
TTITLE9=Les Anges Dans Nos Campagnes
TTITLE10=Oh Tannenbaum
TTITLE11=Petit Papa Noël
EXTD=FEAJ 291105
EXTT0=
EXTT1=
EXTT2=
EXTT3=
EXTT4=
EXTT5=
EXTT6=
EXTT7=
EXTT8=
EXTT9=
EXTT10=
EXTT11=
PLAYORDER=
